<svg width="154" height="154" viewBox="0 0 154 154" fill="none" xmlns="http://www.w3.org/2000/svg">
<path d="M99.4322 45.5672C99.8587 45.0204 100.684 44.5557 101.302 44.8345C101.663 45.004 101.876 44.5283 101.466 44.4518C101.039 44.377 100.6 44.4306 100.204 44.6058C99.8078 44.7811 99.4726 45.07 99.2408 45.436C99.2322 45.4486 99.2261 45.4627 99.223 45.4776C99.2198 45.4925 99.2196 45.5079 99.2224 45.5229C99.2252 45.5378 99.2309 45.5521 99.2392 45.5649C99.2476 45.5777 99.2583 45.5887 99.2709 45.5973C99.2834 45.6059 99.2976 45.612 99.3125 45.6151C99.3274 45.6183 99.3428 45.6184 99.3577 45.6157C99.3727 45.6129 99.387 45.6072 99.3998 45.5988C99.4125 45.5905 99.4236 45.5798 99.4322 45.5672ZM100.323 47.0654C99.9953 46.7647 99.1369 48.0441 99.5743 48.3066C99.8204 48.4487 100.657 47.3716 100.323 47.0654ZM107.481 46.7975C107.794 46.9746 108.057 47.2298 108.243 47.5383C108.429 47.8468 108.531 48.1981 108.541 48.5581C108.542 48.5845 108.55 48.6101 108.566 48.631C108.583 48.6519 108.605 48.6669 108.631 48.6738C108.656 48.6806 108.683 48.6789 108.708 48.6688C108.732 48.6588 108.752 48.641 108.766 48.6182C109.105 47.727 108.427 46.8467 107.71 46.3764C107.421 46.1796 107.185 46.71 107.481 46.7975ZM103.555 55.7592C104.326 55.1358 105.583 55.0265 106.207 55.9287C106.677 56.6121 106.278 57.4487 105.436 57.2409C105.198 57.1445 104.968 57.0312 104.747 56.9019C104.726 56.8943 104.704 56.8924 104.683 56.8965C104.661 56.9006 104.641 56.9105 104.625 56.9251C104.608 56.9398 104.596 56.9586 104.59 56.9795C104.583 57.0005 104.583 57.0228 104.588 57.0441C104.889 57.9463 106.672 57.9025 106.808 56.716C106.972 55.2999 104.867 54.1735 103.435 55.6225C103.416 55.6384 103.405 55.6609 103.404 55.685C103.402 55.7091 103.41 55.7328 103.426 55.751C103.442 55.7691 103.465 55.7801 103.489 55.7817C103.513 55.7832 103.537 55.7751 103.555 55.7592ZM105.49 50.4335C106.037 50.6851 106.584 49.3126 106.141 49.1267C105.698 48.9408 105.151 50.2914 105.49 50.4335ZM101.898 52.4402C102.669 52.7519 102.549 52.3527 102.445 52.2598C101.822 51.9438 101.179 51.6698 100.52 51.4396C101.324 50.1656 102.084 48.8752 102.964 47.6504C103.041 47.5466 102.877 47.4153 102.8 47.5247C101.969 48.6893 101.127 49.8485 100.323 51.0295C99.8094 51.7786 99.9735 51.6638 101.898 52.4402ZM121.555 97.8174C121.934 97.6256 122.235 97.3092 122.408 96.9214C122.581 96.5337 122.615 96.0982 122.505 95.6882C122.394 95.2782 122.146 94.9187 121.802 94.6701C121.458 94.4216 121.038 94.2992 120.614 94.3234C117.755 94.3234 117.99 99.7748 121.555 97.8174ZM133.376 85.2797C134.568 86.428 137.291 85.9359 136.449 83.53C135.448 80.6595 131.211 83.1965 133.376 85.2797ZM130.199 105.833C126.448 106.139 128.422 111.339 131.08 109.764C132.89 108.687 132.08 105.658 130.199 105.833ZM120.51 79.1667C120.079 77.346 117.038 76.8921 116.36 79.0027C115.3 82.3326 121.205 82.1029 120.51 79.1667ZM143.732 97.7025C139.932 99.0804 145.668 104.663 146.646 99.6709C147.013 97.8338 145.269 97.1448 143.732 97.7025ZM107.973 89.3095C107.547 89.371 107.154 89.5751 106.859 89.8887C106.564 90.2022 106.384 90.6066 106.348 91.0357C106.313 91.4648 106.424 91.8933 106.663 92.2511C106.903 92.6089 107.256 92.8749 107.667 93.0057C110.483 93.8477 110.958 88.8721 107.973 89.3095Z" fill="black"/>
<path d="M152.809 104.948C152.617 96.3961 147.396 87.5 142.086 80.977C143.366 79.224 144.087 77.1265 144.158 74.9575C144.228 72.7885 143.643 70.6486 142.48 68.8166C140.987 66.4655 138.975 65.6508 138.341 63.8956C137.575 61.8069 138.532 59.5214 138.401 57.4108C138.248 54.8738 136.761 52.0797 134.142 51.3963C132.403 50.9424 129.833 51.7517 128.898 48.5803C128.165 46.0925 129.445 42.4127 127.258 38.9406C126.088 37.0761 124.026 36.0427 122.02 35.3374C119.483 34.4461 116.481 34.0962 114.037 35.4194C112.575 34.8563 110.999 34.6592 109.444 34.8453C111.166 33.0518 111.904 29.3228 111.084 26.9607C110.833 26.228 106.584 29.2517 106.278 33.0354C104.556 31.0178 102.855 30.3453 100.351 30.0227C99.3885 29.8969 101.395 34.8945 103.118 35.5561C101.805 35.6764 99.9899 36.1029 99.044 37.0707C98.7474 37.4282 98.5257 37.8418 98.3923 38.2868C98.2589 38.7318 98.2165 39.1991 98.2675 39.6608C98.3185 40.1226 98.462 40.5694 98.6893 40.9745C98.9167 41.3796 99.2233 41.7349 99.5908 42.019C97.6388 45.1247 95.9219 48.5421 95.5993 52.2492C94.0455 52.6355 92.7061 53.6175 91.8703 54.9831C89.5465 58.3731 92.2476 59.9041 91.3837 62.5833C90.3612 65.8039 87.2719 64.6064 85.8065 66.7443C84.713 68.2917 84.9699 70.4734 86.0307 71.977C84.4286 72.8956 82.411 74.0384 81.1425 75.3561C81.4323 66.9302 80.3387 59.1386 79.9122 57.3999C79.8521 57.1702 78.9937 57.3507 78.764 57.3671C79.2321 56.3551 79.5543 55.2818 79.7209 54.1794C79.8138 53.1514 79.7209 51.6806 78.4031 51.5986C78.2883 51.276 78.4031 47.957 76.298 46.1308C75.8387 45.7316 75.3521 45.6551 75.3631 46.3823C75.3631 47.4759 76.1231 48.4327 76.227 50.2097C75.7275 50.2386 75.247 50.4114 74.8436 50.7073C72.99 50.2261 70.9834 54.4363 72.6565 54.748C72.4362 55.5293 72.4882 56.3623 72.8041 57.1101C72.6565 57.1101 72.3394 56.9898 72.2574 57.1593C68.3041 64.8689 62.7325 78.6641 64.258 87.1501C66.035 97.0304 76.6699 99.7752 85.3582 98.791C85.8694 103.707 87.3131 108.479 89.6121 112.854C90.2573 114.068 92.8928 119.262 94.3527 120.476C93.9358 122.221 93.7248 124.008 93.7239 125.802C93.7239 125.977 93.9863 125.95 93.9918 125.802C94.0518 124.123 94.2771 122.455 94.6643 120.821C95.8713 121.327 97.1032 121.773 98.3551 122.155C108.192 125.099 118.664 125.184 128.548 122.401C129.997 121.991 131.555 121.608 132.819 120.761C133.316 122.401 133.863 123.97 134.393 125.572C134.397 125.586 134.404 125.598 134.412 125.609C134.421 125.619 134.432 125.628 134.444 125.635C134.456 125.642 134.47 125.646 134.483 125.647C134.497 125.649 134.511 125.647 134.524 125.643C134.538 125.639 134.55 125.633 134.561 125.624C134.572 125.615 134.581 125.605 134.587 125.592C134.594 125.58 134.598 125.567 134.599 125.553C134.601 125.539 134.599 125.525 134.596 125.512C134.103 123.751 133.628 121.991 133.097 120.247C133.448 118.683 133.632 117.087 133.644 115.484C136.99 115.965 141.726 116.359 145.017 115.697C148.309 115.036 151.059 113.248 152.125 109.951C152.639 108.335 152.87 106.642 152.809 104.948ZM117.514 38.9188C118.52 40.8216 118.794 43.6047 118.477 45.6988C118.27 47.2821 117.633 48.7782 116.634 50.0238L116.087 49.8707C117.438 45.4965 116.202 40.4935 112.358 37.8033C110.832 36.8304 109.124 36.1758 107.339 35.8787C110.548 34.0306 115.775 35.6162 117.514 38.9188ZM110.915 27.3161C111.232 31.6466 110.587 33.1229 108.727 34.971C108.375 35.0471 108.034 35.1665 107.71 35.3264C107.436 34.5977 107.042 33.9195 106.546 33.3198C107.011 30.8155 108.432 28.2894 110.915 27.3161ZM100.498 30.3179C100.498 30.2414 100.498 30.2578 100.564 30.2742C104.277 31.1217 105.666 32.1387 107.377 35.5123C107.246 35.5948 107.123 35.69 107.011 35.7967C105.955 35.5819 104.878 35.4865 103.801 35.5123C102.084 35.2116 100.777 31.8763 100.498 30.3179ZM100.006 42.2322C103.56 44.1733 109.225 45.8355 113.424 45.2887C112.283 46.6671 111.698 48.4222 111.784 50.2097C111.85 51.5986 112.708 52.5062 113.916 51.4783C114.545 50.9315 115.349 49.9746 116.289 50.2863C117.23 50.598 117.104 51.6751 116.716 52.4734C115.278 55.4205 112.517 54.9284 113.588 61.7304C113.771 62.8876 114.058 64.0259 114.447 65.1313C114.264 66.02 113.777 66.8169 113.069 67.3841C109.826 70.3257 103.593 69.6204 103.697 65.5797C103.728 64.4654 103.7 63.3503 103.615 62.2389C101.466 61.8014 98.7378 60.8063 97.3982 58.9254C96.9406 58.2406 96.604 57.4823 96.4031 56.6836C95.479 53.4685 96.1133 50.0348 97.4092 47.0111C98.1272 45.3422 98.9966 43.7426 100.006 42.2322ZM114.802 65.3446C115.404 65.3993 115.978 65.4813 116.546 65.5742C116.546 66.0116 117.093 67.7613 116.672 69.8719C116.262 72.1082 114.676 74.432 112.249 74.6289C108.585 74.9187 107.738 71.3045 107.754 69.5438C112.44 69.8774 114.994 66.0991 114.802 65.3446ZM107.038 69.4563C106.781 69.4563 106.152 71.9715 103.878 72.4855C101.723 72.9776 100.411 71.2553 100.81 69.2048C101.122 67.5645 102.319 66.4327 102.554 65.9242L103.314 65.7547C103.15 67.8434 104.938 69.1009 107.038 69.4563ZM78.9062 52.0743C79.7592 52.621 79.3381 54.6879 79.0811 55.4643C78.8734 56.104 78.6273 56.7383 78.3977 57.3725C76.6549 57.4502 74.9086 57.366 73.1814 57.121C72.946 56.3366 72.8643 55.5142 72.9408 54.6988C73.1903 54.63 73.4073 54.475 73.5532 54.2614C74.0617 54.8574 74.8108 54.0044 75.1936 53.638L76.1504 53.7911C75.4966 54.2615 75.0223 54.9402 74.8053 55.7158C74.8072 55.7398 74.817 55.7625 74.8332 55.7804C74.8493 55.7983 74.8709 55.8103 74.8945 55.8147C74.9182 55.819 74.9427 55.8155 74.9641 55.8045C74.9856 55.7936 75.0028 55.7758 75.0131 55.7541C75.1699 55.3288 75.4132 54.9407 75.7275 54.6141C76.0418 54.2876 76.4204 54.0297 76.8394 53.8568C77.5392 53.6544 77.3861 53.3756 76.8394 53.485C76.6699 53.5178 74.953 53.4303 74.9202 53.1514C74.8874 52.8726 77.9274 51.4509 78.9062 52.0743ZM76.3035 50.5105V51.1666C76.3035 51.2705 76.4894 51.276 76.5113 51.1666C76.9432 48.7772 75.795 47.7274 75.795 46.2893C75.795 46.0214 75.9754 46.2128 76.1012 46.2893C77.8946 47.7274 78.0477 50.3683 78.086 51.5712C77.013 51.6708 75.9806 52.0312 75.0787 52.621C74.6194 52.8726 74.2422 53.2881 74.8764 53.5615C74.614 53.7529 73.9469 54.5074 73.7063 53.9388C73.4657 53.3701 74.346 50.5542 76.2871 50.4995L76.3035 50.5105ZM72.4487 54.0591C72.3448 52.8233 73.247 51.1338 74.5319 50.9807C73.7993 51.697 73.1431 53.3428 73.3892 54.0645C73.165 54.3653 72.4761 54.7699 72.4323 54.0481L72.4487 54.0591ZM72.5198 57.2796C74.7343 57.9248 77.3315 57.7061 79.6279 57.635L80.0708 60.7298C77.1255 60.9684 74.1609 60.7228 71.295 60.0025C71.6887 59.084 72.1043 58.1872 72.5034 57.2687L72.5198 57.2796ZM151.256 111.083C148.741 108.179 146.045 112.723 148.342 114.057C146.39 115.189 144.109 115.539 141.884 115.599C133.836 115.818 125.377 113.811 118.11 110.394C118.482 106.019 117.46 102.618 115.978 100.382C122.118 98.8129 126.848 98.4192 132.764 98.0693C132.862 98.0693 132.884 97.8943 132.764 97.8888C131.617 97.835 130.469 97.8551 129.325 97.949C129.221 97.4623 125.65 93.8372 122.216 86.4666C122.162 86.3518 121.981 86.4065 122.031 86.5268C123.762 90.4316 125.954 94.1156 128.559 97.5006C128.674 97.6537 128.794 97.8068 128.925 97.9545C122.906 98.2938 116.958 99.4301 111.237 101.334C110.975 101.426 111.155 101.694 111.308 101.815C110.49 101.857 109.68 101.991 108.891 102.214C108.531 102.012 107.333 101.93 106.447 101.071C105.354 99.9775 105.266 102.536 106.661 103.138C102.932 105.177 102.09 108.228 103.172 108.114C103.435 108.086 103.642 107.829 103.828 107.649C104.151 107.348 104.484 107.053 104.802 106.736C103.243 110.016 104.873 111.022 105.316 109.47C105.612 108.43 106.178 107.487 106.956 106.736C106.026 108.551 106.847 110.798 107.645 110.191C108.093 109.841 107.929 108.004 109.487 107.135C109.662 107.042 109.848 106.982 110.034 106.894C110.532 107.518 112.161 108.365 114.004 108.36C114.059 108.485 114.064 108.546 114.141 108.595C120.028 112.047 126.525 114.333 133.278 115.326C133.264 116.98 133.081 118.629 132.731 120.247C131.173 121.296 127.569 122.177 125.672 122.603C118.373 124.228 110.817 124.325 103.478 122.888C101.789 122.554 95.5774 121.171 94.5878 120.022C92.7342 117.874 91.9031 115.938 90.5088 113.461C87.7257 108.513 85.7682 102.061 85.6917 96.3797C85.5794 91.9567 86.7328 87.5936 89.0161 83.8038C90.0885 82.2108 91.2495 80.6792 92.4936 79.2163C92.5811 79.1179 92.428 78.9812 92.346 79.0797C90.2518 81.4581 88.442 83.6124 87.1844 86.5541C85.6411 90.2616 85.0183 94.2875 85.3691 98.288C78.5836 99.1464 70.9123 97.856 66.713 91.9125C68.5119 91.1799 67.9378 87.2595 64.8813 87.9156C63.487 82.4478 65.6796 74.4047 67.4621 69.3251C68.5557 66.203 69.8461 63.1629 71.213 60.1447C72.6073 60.8391 77.1893 61.3367 80.1419 61.0524C80.9357 67.5389 81.1005 74.0869 80.634 80.6052C80.634 80.7255 80.8144 80.7255 80.8363 80.6052C81.0732 79.0028 81.1974 77.3859 81.2081 75.7662C83.5647 73.5299 87.6328 71.3919 90.5744 70.0086C90.1643 71.0748 91.236 72.3324 92.3515 72.3269C94.6479 72.3269 94.6698 69.1939 93.0677 68.9096C95.9699 67.711 98.9629 66.7456 102.018 66.0226C100.925 67.4934 99.8314 69.3634 100.624 71.2224C101.554 73.4533 104.845 73.6775 106.754 70.5772C104.239 75.8567 102.615 81.5157 101.947 87.3251C101.947 87.4563 102.128 87.5 102.15 87.3688C102.986 81.3773 104.763 75.5553 107.415 70.118C107.438 71.3311 107.84 72.5067 108.563 73.4806C111.357 77.155 118.679 74.2079 116.956 65.6344C121.039 66.3598 124.966 67.7841 128.565 69.8446C128.172 70.1899 127.92 70.6672 127.855 71.1861C127.791 71.705 127.919 72.2295 128.215 72.6605C128.366 72.8909 128.56 73.0892 128.788 73.2442C129.016 73.3991 129.272 73.5076 129.542 73.5635C129.811 73.6194 130.089 73.6215 130.36 73.5697C130.63 73.518 130.888 73.4134 131.118 73.2619C131.333 73.1027 131.507 72.8948 131.626 72.6553C131.744 72.4157 131.805 72.1514 131.802 71.884C137.761 76.0396 142.568 81.6604 146.395 87.7898C149.331 92.4921 151.907 98.0529 152.333 103.712C152.519 106.205 152.371 108.824 151.256 111.072V111.083ZM107.836 105.659L107.328 106.205C104.916 107.846 105.141 110.377 104.594 109.858C103.921 109.202 105.048 106.326 106.059 105.429C106.923 104.663 105.922 104.773 105.135 106.101L105.091 106.145C104.48 106.641 103.894 107.169 103.336 107.725C102.111 108.852 103.73 102.69 111.587 102.104C113.227 103.608 113.654 105.888 113.944 108.026C111.713 108.026 110.176 106.632 109.974 106.654C108.755 106.796 107.967 108.174 107.667 109.234C107.628 109.366 107.541 109.945 107.41 109.989C107 110.131 106.218 107.518 107.957 105.828C108.088 105.697 107.94 105.555 107.836 105.659ZM106.929 102.99C105.95 102.695 105.666 101.033 106.026 101.109C106.692 101.701 107.483 102.135 108.339 102.378C107.852 102.535 107.38 102.734 106.929 102.974V102.99ZM111.456 101.667C111.303 101.667 114.737 100.688 115.715 100.437C117.815 104.193 117.973 106.998 117.722 110.219L114.398 108.496C114.037 105.38 113.063 102.69 111.456 101.651V101.667Z" fill="black"/>
<path d="M77.7799 91.6171C78.458 92.9677 81.6074 92.5029 81.5035 90.4197C81.3613 87.4343 76.1998 88.4841 77.7799 91.6171ZM75.2866 66.4052C75.3687 63.5018 71.8693 63.9502 71.5029 66.8098C71.3116 68.2752 75.1992 69.5328 75.2866 66.4052ZM74.7781 74.2132C74.0455 74.9185 74.1001 77.2751 76.1505 77.2205C79.6882 77.133 77.0855 71.9987 74.7781 74.2132ZM93.0733 105.112C94.1669 106.637 96.7313 105.527 96.2993 103.542C95.6869 100.737 91.269 102.618 93.0733 105.112ZM95.4846 81.2557C93.2592 81.2557 92.964 84.3231 94.5715 85.0339C98.3826 86.718 98.5521 81.2557 95.4846 81.2557ZM109.706 118.119C111.85 119.585 114.627 116.047 112.222 114.653C109.69 113.171 107.454 116.594 109.706 118.119Z" fill="black"/>
<path d="M12.1467 47.1566C8.22703 45.943 4.33709 44.6991 0.499407 43.2413C0.00374302 43.0532 -0.216308 43.8541 0.279906 44.0368C4.10658 45.4473 8.05264 46.6801 12.0449 47.5251C12.2848 47.5757 12.3832 47.2297 12.1467 47.1566Z" fill="black"/>
<path d="M16.5396 41.0359C15.1368 38.919 10.392 32.2554 9.4342 30.9109C9.15309 30.5159 8.90883 30.0059 8.46433 29.7842C8.22392 29.6643 8.00387 29.8607 8.04128 30.1093C8.11885 30.6253 8.58976 31.0704 8.89453 31.4813C9.24606 31.9556 14.8034 39.462 16.236 41.2703C16.3718 41.4419 16.6601 41.218 16.5396 41.0359Z" fill="black"/>
<path d="M24.3997 37.1317C24.233 35.6606 24.107 34.9136 23.2582 29.2208C23.2043 28.8578 23.2032 28.4408 22.9969 28.131C22.867 27.9363 22.5579 27.9589 22.4902 28.1971C22.4011 28.5117 22.3972 28.2719 23.1184 32.6124C23.3726 34.1412 23.6097 35.6771 23.9183 37.196C23.9722 37.4623 24.431 37.4078 24.3997 37.1317Z" fill="black"/>
<path d="M47.7141 69.9632L50.9065 70.7575C50.2628 65.8389 49.771 62.6927 49.4437 60.7915C48.5492 62.8506 47.8208 64.9818 47.2734 67.1587C47.4132 68.0157 47.5606 68.9509 47.7141 69.9632Z" fill="black"/>
<path d="M41.0388 112.737C39.9979 111.915 38.49 112.092 37.6676 113.133C36.3533 114.796 37.7028 117.256 39.8307 117.004C41.941 116.756 42.7118 114.059 41.0388 112.737Z" fill="black"/>
<path d="M55.5907 114.761C54.7386 105.847 52.9364 86.4136 50.9785 71.3094L48.3318 74.2426C49.7253 84.4007 51.0131 98.2166 51.5567 107.212C51.6386 107.91 51.1375 108.544 50.4393 108.626C50.2044 108.654 48.0259 109.706 39.11 110.752C30.0561 111.814 27.9958 111.264 27.5706 111.308C26.8708 111.392 26.2382 110.889 26.154 110.176C26.1386 110.087 24.5966 101.105 22.7361 87.559C20.8772 74.0253 20.6863 63.6687 20.683 63.5383C20.601 62.8402 21.1022 62.2059 21.8333 62.1179C26.7735 60.9417 36.2774 59.5136 41.601 59.3711C41.7941 58.5597 42.001 57.7516 42.2227 56.9473C35.6899 57.5018 20.2209 59.3997 18.5969 59.9581C17.3993 60.0984 15.1532 61.2674 14.9028 62.7665C14.5178 65.0682 20.1598 112.987 21.3542 118.234C21.5621 120.008 23.5624 120.565 25.3387 120.386C29.7436 119.942 49.7737 118.278 53.9899 116.775C54.9889 116.657 55.6853 115.751 55.5907 114.761ZM24.6791 119.907C22.9578 119.799 22.0226 119.214 21.8966 118.147C20.3397 110.43 15.5366 68.128 15.4222 63.5026C15.3892 62.1702 16.309 61.4165 17.4752 61.0919C17.0307 62.1735 19.8441 86.2156 19.9789 87.3774C22.1034 105.64 23.9607 118.339 23.9783 118.457C24.0525 119.088 24.4415 119.607 24.9702 119.874L24.6791 119.907ZM39.8951 117.55C38.286 117.739 36.8116 116.585 36.6213 114.964C36.4309 113.344 37.5884 111.88 39.208 111.69C40.8264 111.5 42.2914 112.656 42.4818 114.276C42.6716 115.892 41.5108 117.36 39.8951 117.55Z" fill="black"/>
<path d="M51.4377 70.6067L47.0356 69.5109C48.4192 62.2272 51.8096 55.3958 56.7288 49.8741L56.1925 49.6502C51.2177 55.2857 47.8063 62.2503 46.4475 69.6655C46.4211 69.808 46.5108 69.9466 46.6516 69.9818L50.8601 71.0292L41.0514 81.9003L35.9792 68.4959C37.2627 68.969 38.5989 69.2848 39.9605 69.4355C40.1167 69.4509 40.2504 69.3398 40.2647 69.1874C41.0156 61.0637 43.2496 52.9372 46.7523 45.5424L46.2506 45.3169C42.7639 52.6814 40.5249 60.7661 39.7432 68.8557C38.3228 68.6736 36.9331 68.3061 35.6073 67.7615C35.3851 67.6702 35.1606 67.8886 35.2454 68.113L40.696 82.517C40.7692 82.7095 41.02 82.7568 41.1576 82.6039L51.5753 71.0578C51.7144 70.9038 51.6385 70.6563 51.4377 70.6067Z" fill="black"/>
<path d="M25.205 83.4257C25.2248 82.6407 25.2732 82.0696 25.3002 81.7984C25.3151 81.6471 25.205 81.5123 25.0537 81.4969C24.9052 81.4821 24.7677 81.5927 24.7528 81.7434C24.7248 82.0218 24.6747 82.6087 24.6549 83.4119C24.6456 83.7789 25.1962 83.7844 25.205 83.4257Z" fill="black"/>
<path d="M26.225 81.1881C26.2882 81.1881 26.2772 81.1743 27.8979 80.9284C28.2577 80.874 28.1751 80.3288 27.8153 80.3843C26.8103 80.5367 26.2398 80.6313 26.1804 80.6413C25.8492 80.6963 25.8893 81.1875 26.2255 81.1875L26.225 81.1881Z" fill="black"/>
<path d="M26.361 93.1741C26.2603 92.685 26.1531 92.1442 26.0419 91.5583C25.9743 91.2008 25.434 91.3031 25.5017 91.6612C25.6134 92.2504 25.7212 92.7928 25.8224 93.2846C25.8527 93.4315 25.9963 93.5294 26.147 93.4986C26.2961 93.4678 26.3918 93.3226 26.361 93.1741Z" fill="black"/>
<path d="M25.052 86.9906C25.2032 86.978 25.3155 86.8448 25.3034 86.6936C25.2583 86.15 25.2269 85.6005 25.2104 85.0602C25.206 84.9084 25.0646 84.7918 24.9271 84.794C24.7753 84.7989 24.6559 84.9255 24.6603 85.0773C24.6773 85.6269 24.7092 86.1863 24.7554 86.7392C24.767 86.8828 24.8897 87.0016 25.052 86.9906Z" fill="black"/>
<path d="M29.4895 80.6909C29.545 80.6909 29.5302 80.6821 31.1618 80.4581C31.3126 80.4372 31.4177 80.2986 31.3967 80.1484C31.3758 79.9982 31.2378 79.8915 31.087 79.9135C30.4923 79.9949 29.9455 80.0725 29.4504 80.144C29.1143 80.1919 29.15 80.6909 29.4895 80.6909Z" fill="black"/>
<path d="M32.7601 80.2414C32.8151 80.2414 32.8382 80.2293 34.432 80.028C34.5827 80.0093 34.6894 79.8718 34.6707 79.7205C34.652 79.5703 34.5156 79.4625 34.3632 79.4817C33.7911 79.5538 33.2442 79.6247 32.7244 79.693C32.386 79.737 32.419 80.2414 32.7601 80.2414Z" fill="black"/>
<path d="M36.0349 79.8283L37.7051 79.6352C37.8558 79.6182 37.9647 79.4817 37.9477 79.331C37.9306 79.1803 37.7964 79.0702 37.6434 79.0884C37.1296 79.1461 36.5833 79.21 36.0024 79.2804C35.6613 79.3211 35.6916 79.8283 36.0349 79.8283Z" fill="black"/>
<path d="M25.7465 89.939C25.6326 89.2805 25.5661 88.9136 25.4836 88.3195C25.4627 88.1693 25.3251 88.0642 25.1738 88.0846C25.0231 88.1055 24.918 88.2446 24.9389 88.3948C25.0225 89.0022 25.093 89.3917 25.2041 90.0337C25.2305 90.186 25.3774 90.284 25.5226 90.257C25.6722 90.2311 25.7724 90.0881 25.7465 89.939Z" fill="black"/>
<path d="M46.8612 84.2655C47.0114 84.2424 47.1143 84.1021 47.0911 83.9519C46.9998 83.355 46.9036 82.8088 46.8073 82.3147C46.7781 82.1657 46.6334 82.0683 46.4849 82.0974C46.3358 82.1266 46.2385 82.2707 46.2676 82.4198C46.3622 82.9067 46.458 83.4458 46.5476 84.035C46.5707 84.1857 46.7121 84.288 46.8612 84.2655Z" fill="black"/>
<path d="M47.2226 87.5465C47.3738 87.5338 47.4861 87.4002 47.4729 87.2489C47.4432 86.9028 47.332 85.7894 47.31 85.5985C47.2682 85.2354 46.7219 85.3009 46.7638 85.6612C46.7852 85.8493 46.8952 86.9529 46.9249 87.2962C46.9381 87.4513 47.0773 87.5608 47.2226 87.5465Z" fill="black"/>
<path d="M47.7272 92.2131C47.7228 91.844 47.1727 91.8594 47.1771 92.2203C47.1837 92.7374 47.1848 93.3816 47.1705 93.8591C47.1688 93.9191 47.2046 94.1386 47.4455 94.1424C47.5935 94.1446 47.7156 94.0247 47.7206 93.8756C47.7349 93.3865 47.7343 92.7374 47.7272 92.2131Z" fill="black"/>
<path d="M26.7054 94.7832C26.6267 94.4278 26.0887 94.5483 26.1684 94.9031C26.3753 95.8284 26.5123 96.3555 26.5123 96.3555C26.5491 96.6652 26.8225 96.8077 27.0167 96.6465C27.1334 96.5485 27.1499 96.3703 27.0519 96.2537C27.0519 96.2537 26.9166 95.7267 26.7054 94.7832Z" fill="black"/>
<path d="M47.4184 90.8415C47.5703 90.8365 47.6885 90.7067 47.6819 90.5549C47.6616 90.0493 47.6341 89.4964 47.5967 88.9006C47.5868 88.7488 47.4564 88.6333 47.3051 88.6437C47.1533 88.6531 47.0383 88.784 47.0477 88.9353C47.0845 89.5261 47.1126 90.0757 47.1324 90.5774C47.1351 90.6396 47.1879 90.8481 47.4184 90.8404V90.8415Z" fill="black"/>
<path d="M46.0266 94.3022C45.7741 94.3539 45.2614 94.4523 44.4142 94.5915C44.2646 94.6157 44.1628 94.7577 44.1875 94.9073C44.2129 95.0619 44.3603 95.1598 44.5033 95.1339C45.3621 94.9931 45.8808 94.893 46.1366 94.8407C46.2857 94.8105 46.3815 94.6652 46.3512 94.5162C46.3209 94.3671 46.1741 94.2713 46.0266 94.3022Z" fill="black"/>
<path d="M32.9746 96.0294C32.3645 96.0888 31.8194 96.1389 31.3353 96.1807C30.9777 96.211 31.014 96.7534 31.3826 96.7286C31.8683 96.6868 32.4157 96.6368 33.0285 96.5768C33.3894 96.541 33.3388 95.9948 32.9746 96.0294Z" fill="black"/>
<path d="M29.6951 96.3091C28.553 96.3872 28.0656 96.3922 28.0656 96.3922C27.9138 96.3933 27.7916 96.5176 27.7927 96.6694C27.7938 96.8202 27.9171 96.9428 28.0678 96.9423C28.0876 96.9423 28.5701 96.9379 29.7325 96.8581C30.0906 96.8334 30.0653 96.2898 29.6951 96.3091Z" fill="black"/>
<path d="M36.2515 95.6805C35.6695 95.7465 35.1243 95.8065 34.6132 95.8615C34.4625 95.8774 34.353 96.0133 34.369 96.164C34.3849 96.3159 34.5214 96.4243 34.6715 96.4083C35.1832 96.3538 35.73 96.2939 36.3131 96.2268C36.4639 96.2097 36.5722 96.0733 36.5552 95.9225C36.5381 95.7718 36.4028 95.6634 36.251 95.6805H36.2515Z" fill="black"/>
<path d="M42.7887 94.8432C42.3052 94.9141 41.7633 94.9912 41.1583 95.0731C40.7996 95.1221 40.8689 95.6651 41.2325 95.6183C41.8398 95.5358 42.3838 95.4588 42.8691 95.3872C43.2294 95.3344 43.1491 94.7887 42.7887 94.8432Z" fill="black"/>
<path d="M39.5244 95.2874C39.0139 95.3523 38.4698 95.4194 37.8889 95.4893C37.7381 95.5074 37.6303 95.6444 37.6485 95.7951C37.6666 95.9459 37.8036 96.0537 37.9543 96.0355C38.5364 95.9657 39.0821 95.898 39.5937 95.8336C39.9552 95.7874 39.8858 95.2417 39.5244 95.2879V95.2874Z" fill="black"/>
<path d="M40.2674 86.5813L37.3292 86.9405L36.9309 83.6838C36.7983 82.6 35.1606 82.8008 35.2926 83.884L35.6909 87.1408L32.7527 87.5C31.6695 87.6326 31.8703 89.2747 32.9529 89.1383L35.8912 88.779L36.2894 92.0358C36.4237 93.1338 38.0597 92.9165 37.9277 91.8355L37.5294 88.5788L40.4677 88.2196C41.552 88.087 41.3517 86.4503 40.2674 86.5813Z" fill="black"/>
<path d="M46.03 79.2046L45.6025 79.6782C45.684 79.9467 45.7934 80.3307 45.915 80.822C45.9519 80.9705 46.1032 81.0596 46.2484 81.0228C46.3958 80.9859 46.4855 80.8374 46.4492 80.6894C46.2665 79.9533 46.1098 79.4477 46.03 79.2046Z" fill="black"/>
</svg>
