<svg width="154" height="154" viewBox="0 0 154 154" fill="none" xmlns="http://www.w3.org/2000/svg">
<path d="M86.1101 141.067C84.7939 142.12 84.2903 142.073 82.9979 142.935C82.8147 143.118 82.9044 143.406 83.4157 143.245C84.2374 142.986 85.5099 142.366 86.4658 141.601C86.7578 141.455 86.5923 140.826 86.1101 141.067Z" fill="black"/>
<path d="M86.0561 143.238C83.7404 144.782 83.4016 144.782 82.8435 145.012C82.7416 145.055 82.7837 145.627 83.2475 145.551C84.6395 145.325 85.8629 144.313 86.3474 143.99C87.7004 143.088 86.9032 142.39 86.0554 143.237L86.0561 143.238Z" fill="black"/>
<path d="M81.0875 98.674C80.9986 104.545 80.9541 109.59 81.5765 115.369C81.5765 115.725 82.5163 115.665 82.4274 115.22C81.8939 109.351 82.0012 104.514 81.9567 98.6441C81.9514 97.8929 81.1005 97.8024 81.0875 98.674Z" fill="black"/>
<path fill-rule="evenodd" clip-rule="evenodd" d="M69.3371 97.5072C62.5161 99.8605 52.6764 103.699 50.5749 104.608C50.126 104.802 50.0105 104.972 49.8768 105.168C49.8522 105.203 49.8271 105.24 49.7992 105.278C46.1343 109.754 43.4276 114.86 40.9371 120.082C40.5094 120.98 40.0479 121.949 40.7593 122.839C41.4706 123.55 42.2709 124.083 43.249 124.439C43.249 124.439 48.6616 127.19 49.7248 127.717C50.0537 130.26 50.4284 131.858 50.7159 133.084C50.781 133.361 50.8415 133.619 50.8961 133.865C50.985 134.755 51.5186 135.555 52.141 136.088C53.208 136.711 54.2751 137.244 55.3421 137.689C56.2421 138.124 57.1003 138.539 57.9249 138.938C66.1518 142.918 71.0399 145.282 80.8629 149.516C81.1097 149.598 81.2806 149.452 81.3749 149.219C88.73 145.844 95.5208 141.437 101.849 136.356C102.121 136.137 102.395 135.919 102.671 135.7C103.9 134.723 105.151 133.729 106.295 132.621C107.485 131.468 107.536 129.8 107.586 128.205C107.596 127.863 107.607 127.525 107.628 127.196C107.654 126.815 107.68 126.434 107.707 126.052C107.779 125.003 107.852 123.95 107.895 122.892C108.587 122.41 109.27 121.919 109.94 121.417C110.741 120.972 111.363 120.261 111.63 119.371C111.719 118.393 111.63 117.326 111.363 116.348L111.365 116.347C110.423 111.379 108.931 106.436 106.479 101.93C106.085 101.207 105.822 100.964 105.363 100.833C101.094 99.6213 93.6382 97.8728 87.3885 96.6938C86.1934 96.726 84.98 96.7644 83.7451 96.8096C83.8516 96.8303 83.9582 96.851 84.0647 96.8725C91.5838 98.1258 97.9194 99.4343 105.237 101.571C99.0263 106.089 92.4715 110.006 85.4875 113.323C84.1506 113.963 82.5117 114.515 80.941 115.045C80.2374 115.282 79.5475 115.515 78.9043 115.749C78.5141 115.454 70.8557 112.733 65.4519 110.814C64.6621 110.533 63.9205 110.269 63.2567 110.033C62.4233 109.737 61.5794 109.447 60.7312 109.156C57.4021 108.015 54.0059 106.85 50.9069 105.133C58.7539 101.947 61.9768 100.833 65.5221 99.6075C67.1267 99.0533 68.7974 98.4753 70.9928 97.6727H70.9935C71.2814 97.5677 71.5704 97.4658 71.8602 97.3676C71.0302 97.4129 70.1893 97.4589 69.3371 97.5072ZM41.2039 121.237C40.8482 122.571 41.9236 123.087 42.8933 123.549C46.0191 125.04 48.6382 126.342 50.9359 127.485C55.3841 129.698 58.6278 131.312 62.0119 132.531C62.4036 132.672 62.7977 132.831 63.1885 132.988C63.8532 133.255 64.5081 133.519 65.1241 133.687C65.3495 133.748 65.5891 133.829 65.8364 133.911C66.6619 134.189 67.5725 134.494 68.3252 134.22C69.102 133.937 69.4862 133.15 69.8341 132.437C69.9243 132.253 70.012 132.073 70.1036 131.908C70.8266 130.342 72.2706 127.733 73.9011 124.786C75.3767 122.12 77.0048 119.178 78.39 116.482C78.0489 116.289 71.399 113.842 60.767 110.122C60.182 109.918 59.5919 109.717 58.9998 109.515C56.0315 108.505 53.0129 107.478 50.3319 105.874C47.3462 109.674 44.6894 113.742 42.6266 118.125C42.0931 119.103 41.5595 120.17 41.2039 121.237ZM53.9722 136.203C54.1696 136.283 54.3625 136.361 54.5426 136.443L54.5599 136.452C63.1526 140.617 71.746 144.783 80.5041 148.453C79.3765 139.815 78.656 128.634 78.8254 117.441C77.6288 119.695 76.4015 121.933 75.1738 124.17C73.7951 126.683 72.4165 129.196 71.0824 131.731C70.6378 132.798 70.1043 133.687 69.393 134.487C68.6816 135.11 67.6146 135.287 66.7254 135.021C61.5673 133.434 55.2026 130.418 50.3963 128.047C50.6309 129.502 51.2441 133.206 51.7861 134.576C52.1332 135.453 53.0976 135.846 53.9722 136.203ZM106.687 127.766C106.714 127.028 106.744 126.178 106.83 125.15C106.865 124.623 106.895 124.094 106.921 123.564C106.126 124.107 105.323 124.643 104.519 125.179L104.429 125.239C97.5545 129.822 89.7993 133.143 86.5553 133.954C85.755 134.131 84.9547 133.598 84.7769 132.798C84.7217 132.632 84.6075 132.191 84.4396 131.547C83.6914 128.667 81.8877 121.723 79.6218 117.181C79.6394 117.403 79.6364 117.984 79.631 118.889C79.6065 123.039 79.5413 134.003 81.3075 148.342C89.8323 144.577 96.9803 139.615 104.162 133.331C104.962 132.798 105.674 132.086 106.207 131.286C106.6 130.207 106.636 129.195 106.687 127.766ZM104.874 123.906C106.652 122.75 108.367 121.624 109.942 120.26V120.259C110.762 119.549 110.68 118.665 110.591 117.71C110.582 117.612 110.573 117.513 110.564 117.414C110.335 114.658 108.555 108.16 105.651 102.336C103.425 104.064 96.272 109.013 90.1948 112.203C87.1716 113.874 83.6339 115.276 80.2481 116.38C82.6275 120.199 85.1295 130.49 85.4851 131.953C85.512 132.061 85.5265 132.121 85.5281 132.126C85.7818 132.843 86.0217 133.242 86.7331 133.064C87.2666 132.975 87.7112 132.798 88.1558 132.62C94.2131 130.418 100.239 127.114 104.874 123.906Z" fill="black"/>
<path fill-rule="evenodd" clip-rule="evenodd" d="M40.3138 84.7799C42.1141 81.4891 45.0852 78.8483 48.4698 77.1006C48.4811 77.3428 48.493 77.585 48.5052 77.8273C44.6439 79.9338 41.5216 83.0505 39.8692 87.1807C39.7653 87.4666 39.6917 87.7748 39.6175 88.086C39.4377 88.8403 39.2538 89.6115 38.6243 90.1151C37.819 90.7344 37.0136 91.3109 36.1782 91.8444C36.0308 91.7448 35.8808 91.6489 35.7285 91.5562C36.8618 90.713 37.1669 90.5052 37.4027 90.3443C37.5729 90.2278 37.7071 90.1365 38.0908 89.8483C38.4465 89.5816 38.7132 89.137 38.8022 88.6924C39.1578 87.3586 39.6024 86.0248 40.3138 84.7799ZM41.2615 100.234C41.7755 99.8112 42.2872 99.3957 42.8043 99.0078C43.2489 98.5632 43.7824 98.2075 44.3159 97.9408C44.6716 97.822 45.0273 97.7829 45.383 97.743C45.5608 97.7231 45.7387 97.7039 45.9165 97.674C46.9835 97.4073 47.8727 96.8737 48.673 96.0735C49.1738 95.5729 49.6746 95.0716 50.1436 94.5549C50.099 94.2598 50.0553 93.9632 50.0123 93.6665C48.2547 95.6296 47.0464 96.9627 44.9384 96.9627C43.8713 97.2294 42.8932 97.7629 42.093 98.5632C41.7639 98.8101 41.4434 99.0569 41.1287 99.306C41.1857 99.6119 41.23 99.9215 41.2615 100.234Z" fill="black"/>
<path fill-rule="evenodd" clip-rule="evenodd" d="M112.234 97.3585C109.998 97.3585 108.208 95.4023 106.695 93.571L106.731 92.6488C106.974 92.9248 107.189 93.177 107.392 93.4138C108.207 94.3713 108.822 95.0934 110.297 96.1612C110.656 96.4218 111.186 96.6058 111.719 96.6947C113.443 96.6947 114.578 97.6697 116.273 99.1469C116.227 99.3776 116.187 99.6099 116.155 99.8444C115.481 99.2879 114.791 98.7406 114.101 98.2477C113.567 97.8031 112.945 97.4474 112.234 97.3585ZM121.781 91.4722C121.402 91.187 120.798 90.7317 119.793 89.9782V89.9774C119.437 89.7996 119.081 89.4439 118.814 89.0882C118.548 88.4658 118.37 87.8433 118.281 87.132C117.784 85.3957 115.757 81.9302 112.768 79.4849C111.232 78.2047 109.283 77.0173 107.224 76.1304L107.215 76.6706C112.061 78.795 116.365 82.8998 117.767 87.8027C117.856 88.4251 118.122 89.0476 118.478 89.5811C119.011 90.0257 119.545 90.4703 120.167 90.826C120.586 91.1395 121.004 91.4224 121.422 91.6929C121.54 91.6171 121.66 91.5442 121.781 91.4722ZM107.362 80.6002C107.286 80.5496 107.211 80.4998 107.135 80.4507C107.142 80.1671 107.149 79.8835 107.156 79.5991C107.345 79.7509 107.533 79.9072 107.718 80.0667C108.074 80.3334 107.718 80.778 107.362 80.6002Z" fill="black"/>
<path d="M41.4705 99.9847C41.0972 96.6227 38.7362 92.7485 34.8904 90.826C34.5347 90.6482 34.179 90.5592 33.8234 90.6482C33.3788 90.826 32.9342 91.0928 32.4896 91.3595C31.641 91.7512 30.8407 92.1912 30.0535 92.6788C26.9443 92.3277 22.5152 96.0876 9.90317 102.92C9.81425 103.009 9.99056 103.272 10.1699 103.187C15.6561 100.573 21.1983 96.9615 26.3541 94.3836C27.3322 93.7611 28.4882 93.4054 29.6441 93.2276C31.0669 93.4054 32.4006 94.0279 33.4677 95.006C35.6907 96.7844 37.1134 99.2741 37.6469 102.031C37.8248 102.654 37.9137 103.365 37.9137 104.077C38.0026 104.432 38.0026 104.788 37.9137 105.233C37.8248 105.499 37.6469 105.766 37.3802 106.033C37.0245 106.477 36.6688 106.922 36.2242 107.278C29.3835 114.852 25.8037 118.798 20.7514 123.462C20.3068 123.818 20.9292 124.351 21.2849 123.995C24.0958 121.654 25.7501 119.708 28.6653 116.793C32.8069 112.517 35.2576 109.617 37.824 106.655C38.1797 106.3 38.3575 105.944 38.5353 105.499C38.5606 105.294 38.579 105.088 38.5898 104.883C39.8078 103.787 40.3015 103.226 41.114 102.297C41.5586 101.586 41.7365 100.786 41.4697 99.9855L41.4705 99.9847ZM39.0696 103.542C38.9094 103.684 38.7492 103.819 38.589 103.95C38.4158 100.828 37.1364 97.9787 35.1572 95.7166C33.7597 94.1789 31.7951 93.0912 30.7265 92.806C32.7111 91.8808 32.8644 91.4745 34.0894 91.2706C34.6229 91.3595 35.1564 91.5374 35.601 91.893C39.1655 94.1988 40.8588 97.7702 40.9362 100.874C40.963 101.941 39.8691 102.83 39.0689 103.542H39.0696Z" fill="black"/>
<path d="M144.977 100.163C139.998 97.4566 130.597 93.3893 129.416 92.96C128.778 92.7147 128.087 92.632 127.4 92.6963C126.243 91.9804 124.414 90.954 124.042 90.7761C123.72 90.6213 123.395 90.5216 123.102 90.5584C122.302 90.7363 121.502 91.1809 120.879 91.7144C119.024 93.0382 117.683 94.6005 116.611 97.0496C116.345 97.7609 116.078 98.5612 115.989 99.3615C115.811 100.162 115.811 100.962 115.989 101.673C116.433 102.563 117.145 103.274 117.856 103.896C119.011 105.194 118.691 104.315 118.834 105.319C119.101 105.942 119.546 106.564 119.99 107.009C120.285 107.303 131.688 120.432 136.085 123.815C136.441 124.171 137.064 123.548 136.619 123.282C134.485 121.414 132.491 119.411 130.572 117.324C128.246 114.793 123.085 109.459 120.524 106.386C119.99 105.764 119.457 105.319 119.457 104.43C119.457 103.096 119.723 101.851 120.079 100.606C120.791 98.2055 122.302 96.0715 124.347 94.5598C125.325 93.6706 126.659 93.226 127.993 93.0482C129.149 93.226 130.305 93.5817 131.283 94.2041C135.818 96.1604 140.354 98.2055 144.8 100.251C145.066 100.517 145.244 100.251 144.977 100.162V100.163ZM119.101 101.674C118.945 102.762 118.947 102.055 118.793 103.811C118.622 103.667 118.457 103.52 118.301 103.364C117.589 102.652 116.406 101.851 116.433 100.696C116.478 98.8272 117.056 97.0503 118.034 95.5379C119.353 93.1624 121.943 91.4231 123.297 91.1977C123.775 91.266 125.756 92.333 126.65 92.8259C123.387 93.6515 119.976 97.2949 119.101 101.673V101.674Z" fill="black"/>
<path d="M34.2419 93.6185C34.6283 93.6185 34.9417 93.305 34.9417 92.9186C34.9417 92.5323 34.6283 92.2188 34.2419 92.2188C33.8554 92.2188 33.542 92.5323 33.542 92.9186C33.542 93.305 33.8554 93.6185 34.2419 93.6185Z" fill="black"/>
<path d="M122.782 93.7469C123.169 93.7469 123.482 93.4334 123.482 93.047C123.482 92.6607 123.169 92.3472 122.782 92.3472C122.396 92.3472 122.083 92.6607 122.083 93.047C122.083 93.4334 122.396 93.7469 122.782 93.7469Z" fill="black"/>
<path d="M56.321 81.5773C56.2321 80.777 55.6112 80.5862 54.9872 80.5103C54.1003 80.403 53.2088 80.4214 52.3196 80.5103C48.7682 80.6789 44.7331 82.1323 41.8263 84.8673C41.5595 84.9563 41.7374 85.223 42.0041 85.1341C43.6047 83.9781 45.367 83.0506 47.2504 82.2887C50.0322 81.1634 52.302 81.2216 54.4529 81.2216C54.9864 81.2216 55.6978 81.3106 55.2532 81.933C53.1735 84.0119 50.5496 85.5641 47.4282 86.5568C47.2504 86.6457 47.1615 86.7347 47.1615 86.9125C47.1615 89.5257 46.1052 91.8644 44.405 93.8482C43.8715 94.4707 43.1601 95.0042 42.5377 95.5377C42.1812 95.7163 42.5852 96.3694 42.9823 96.1602C43.7925 95.7332 44.4939 95.0924 45.0274 94.3818C46.7997 92.3558 47.8828 90.1228 47.9579 87.1869C50.5205 86.379 52.837 85.0751 54.9864 83.3549C55.5199 82.9103 56.4091 82.3768 56.3202 81.5765L56.321 81.5773Z" fill="black"/>
<path fill-rule="evenodd" clip-rule="evenodd" d="M106.118 41.5619C106.118 41.2951 105.941 41.1173 105.674 41.1173C86.6918 38.5701 68.6104 37.8947 49.8299 41.6508C49.4627 41.703 49.3669 42.0724 49.4781 42.33C48.6256 47.6215 48.1021 56.9006 47.9626 62.4596C47.818 68.7452 47.9065 75.1748 48.3442 81.5674C48.6776 81.4708 49.0138 81.3834 49.3526 81.3052C48.3502 67.5785 49.2199 56.2014 50.0003 45.9938C50.0903 44.8164 50.1791 43.6544 50.2638 42.5063C60.7394 40.432 68.7185 39.946 77.7936 39.9882C77.7875 40.6025 77.8281 41.475 77.8895 42.7657C78.0328 45.7977 78.285 51.1373 78.285 60.8583C78.5081 79.3597 78.1478 85.427 77.5897 94.8249C77.5568 95.3791 77.5238 95.9448 77.4893 96.5251C68.2885 96.9942 57.8109 97.6672 52.9088 97.9823L52.908 97.9831L52.8808 97.9846C52.3159 98.0206 51.8258 98.052 51.4213 98.0781C50.6949 93.8782 50.1562 89.8791 49.7677 86.0578C49.4331 86.2019 49.0941 86.3384 48.7512 86.4664C49.1518 90.5491 49.7086 94.5972 50.4523 98.5626C50.5413 98.7404 50.6302 98.8293 50.808 98.8293C58.0994 98.3847 65.3027 98.029 72.5941 97.6734L73.7737 97.6151C85.5035 97.0348 95.7823 96.5266 106.563 97.2288C106.83 97.2288 107.003 97.0509 107.008 96.7842C107.055 94.1963 107.169 91.2527 107.294 88.0194V88.0187C107.32 87.3318 107.348 86.6312 107.375 85.9183C107.153 85.8179 106.933 85.7137 106.716 85.6056C106.649 87.6776 106.515 89.7618 106.381 91.8438V91.8445C106.286 93.3332 106.19 94.821 106.119 96.3012C96.9221 95.7723 87.7251 96.0184 78.5518 96.4707C79.7131 81.513 78.9189 44.7699 78.5518 39.9928C84.4427 40.0434 92.306 40.3676 105.171 42.0188C106.752 54.8495 107.05 68.0804 106.819 81.0576C107.061 81.0952 107.303 81.1381 107.543 81.1849C107.91 69.7582 108.023 55.8427 106.118 41.5627V41.5619Z" fill="black"/>
<path d="M115.633 84.7792C113.143 82.2005 109.408 80.8667 105.94 80.511C105.05 80.4221 104.072 80.3332 103.183 80.4221C102.561 80.4221 101.76 80.511 101.405 81.0445C101.049 81.578 101.583 82.3783 102.027 82.734C104.184 84.7178 106.759 86.1996 109.59 87.0987C109.639 88.8664 110.126 90.5658 110.919 92.0713C111.703 93.5569 113.079 95.379 114.565 96.1617C114.74 96.2544 114.921 96.2506 115.01 96.0727C115.098 95.8949 115.098 95.7171 114.921 95.6281C114.298 95.0057 113.676 94.5611 113.053 93.9387C111.302 91.895 110.432 89.5647 110.297 87.0029C110.297 86.8251 110.208 86.6472 110.03 86.6472C108.074 86.0248 106.206 85.1356 104.517 83.9796C104.072 83.7129 103.628 83.3572 103.272 83.0015C102.828 82.7348 102.472 82.3791 102.205 82.0234C101.76 81.401 102.561 81.3121 103.005 81.3121C107.651 81.3121 111.167 82.1284 115.454 85.2245C115.632 85.2245 115.81 84.9578 115.632 84.7799L115.633 84.7792Z" fill="black"/>
</svg>
